# xmcd
#
# Track frame offsets:
#	150
#	13393
#	24479
#	37123
#	49989
#	62822
#	73957
#	82635
#	94686
#	107747
#	120343
#	130817
#	141407
#	154174
#	167615
#	177067
#	187170
#	197293
#	205794
#	216408
#	225200
#	237464
#	245963
#	257991
#	270297
#
# Disc length: 3706 seconds
#
# Revision: 1
# Processed by: cddbd v1.5.2PL0 Copyright (c) Steve Scherf et al.
# Submitted via: audiograbber 1.83.01
#
DISCID=680e7819
DTITLE=Various Artist - The Lamp Records Story, CD 2
DYEAR=2008
DGENRE=Soul
TTITLE0=The Lovers - Darling It's Wonderful
TTITLE1=The Lovers - Got A Whole Lot Of Lovin'
TTITLE2=Johnny Cook - It's All Your Mind
TTITLE3=Johnny Cook - My Dear, My Darling
TTITLE4=The Sharps - Our Love Is Here To Stay
TTITLE5=The Sharps - Lock My Heart
TTITLE6=The Tantones - Tell Me
TTITLE7=The Tantones - So Afraid
TTITLE8=The Troopers - My Resolution
TTITLE9=The Troopers - Get Out
TTITLE10=The Heart Throbs - All The Way Home
TTITLE11=The Heart Throbs - So Glad
TTITLE12=Rebecca Williams - Take Care Of My Heart
TTITLE13=Rebecca Williams - Please Give Me A Match
TTITLE14=The Minor Bops - Need You Tonight
TTITLE15=The Minor Bops - I Want You For My Own
TTITLE16=The Lovers - Let's Elope
TTITLE17=The Lovers - I Wanna Be Loved
TTITLE18=The Daybreakers - I Wonder Why
TTITLE19=The Daybreakers - Up, Up And Away
TTITLE20=Jimmy Simms - Nobody But You
TTITLE21=Jimmy Simms - Mystery Of Love
TTITLE22=The Lovers - Tell Me
TTITLE23=The Inspirations - Don't Cry
TTITLE24=The Inspirations - Indian Jane
EXTD=
EXTT0=
EXTT1=
EXTT2=
EXTT3=
EXTT4=
EXTT5=
EXTT6=
EXTT7=
EXTT8=
EXTT9=
EXTT10=
EXTT11=
EXTT12=
EXTT13=
EXTT14=
EXTT15=
EXTT16=
EXTT17=
EXTT18=
EXTT19=
EXTT20=
EXTT21=
EXTT22=
EXTT23=
EXTT24=
PLAYORDER=
